<svg width="24" height="24" viewBox="0 0 24 24" fill="none" xmlns="http://www.w3.org/2000/svg">
<path fill-rule="evenodd" clip-rule="evenodd" d="M16.3333 3.5C15.0447 3.5 14 4.54467 14 5.83333V8.16667C14 9.45533 15.0447 10.5 16.3333 10.5H18.6667C19.9553 10.5 21 9.45533 21 8.16667V5.83333C21 4.54467 19.9553 3.5 18.6667 3.5H16.3333ZM5.33333 13.5C4.04467 13.5 3 14.5447 3 15.8333V18.1667C3 19.4553 4.04467 20.5 5.33333 20.5H7.66667C8.95533 20.5 10 19.4553 10 18.1667V15.8333C10 14.5447 8.95533 13.5 7.66667 13.5H5.33333ZM3 5.83333C3 4.54467 4.04467 3.5 5.33333 3.5H7.66667C8.95533 3.5 10 4.54467 10 5.83333V8.16667C10 9.45533 8.95533 10.5 7.66667 10.5H5.33333C4.04467 10.5 3 9.45533 3 8.16667V5.83333ZM16.3333 13.5C15.0447 13.5 14 14.5447 14 15.8333V18.1667C14 19.4553 15.0447 20.5 16.3333 20.5H18.6667C19.9553 20.5 21 19.4553 21 18.1667V15.8333C21 14.5447 19.9553 13.5 18.6667 13.5H16.3333Z" fill="#1E2124"/>
</svg>
