<svg width="32" height="32" viewBox="0 0 32 32" fill="none" xmlns="http://www.w3.org/2000/svg">
<g filter="url(#filter0_d_34_3829)">
<path fill-rule="evenodd" clip-rule="evenodd" d="M14 11C16.2091 11 18 9.20914 18 7C18 4.79086 16.2091 3 14 3C11.7909 3 10 4.79086 10 7C10 9.20914 11.7909 11 14 11ZM14 21C17.866 21 21 19.2091 21 17C21 14.7909 17.866 13 14 13C10.134 13 7 14.7909 7 17C7 19.2091 10.134 21 14 21ZM17.9614 10.8155C18.9141 9.82652 19.5 8.48172 19.5 7.00008C19.5 6.29549 19.3675 5.62184 19.1261 5.00269C20.7244 5.0688 21.9999 6.38548 21.9999 8.00008C21.9999 9.65694 20.6568 11.0001 18.9999 11.0001C18.6349 11.0001 18.285 10.9349 17.9614 10.8155ZM22.4999 16.9999C22.4999 17.5387 22.3802 18.0595 22.157 18.5515C23.8634 18.0226 24.9999 17.0776 24.9999 15.9999C24.9999 14.4937 22.7799 13.2468 19.8867 13.0325C21.4974 14.0333 22.4999 15.4409 22.4999 16.9999Z" fill="#1E2124"/>
</g>
<defs>
<filter id="filter0_d_34_3829" x="0" y="0" width="32" height="32" filterUnits="userSpaceOnUse" color-interpolation-filters="sRGB">
<feFlood flood-opacity="0" result="BackgroundImageFix"/>
<feColorMatrix in="SourceAlpha" type="matrix" values="0 0 0 0 0 0 0 0 0 0 0 0 0 0 0 0 0 0 127 0" result="hardAlpha"/>
<feOffset dy="4"/>
<feGaussianBlur stdDeviation="2"/>
<feComposite in2="hardAlpha" operator="out"/>
<feColorMatrix type="matrix" values="0 0 0 0 0 0 0 0 0 0 0 0 0 0 0 0 0 0 0.25 0"/>
<feBlend mode="normal" in2="BackgroundImageFix" result="effect1_dropShadow_34_3829"/>
<feBlend mode="normal" in="SourceGraphic" in2="effect1_dropShadow_34_3829" result="shape"/>
</filter>
</defs>
</svg>
